<svg width="1424" height="157" viewBox="0 0 1424 157" fill="none" xmlns="http://www.w3.org/2000/svg">
<path opacity="0.03" d="M0.188337 154L80.6982 -56.0386H124.964L205.176 154H165.07L151.107 115.082H54.2577L39.9976 154H0.188337ZM66.1411 81.5114H138.927L102.682 -18.606L66.1411 81.5114ZM217.726 154V-56.0386H303.88C313.585 -56.0386 322.498 -55.1473 330.618 -53.3648C338.936 -51.7804 346.066 -48.9086 352.008 -44.7494C358.148 -40.5902 362.901 -35.0446 366.268 -28.1127C369.635 -21.1807 371.319 -12.5653 371.319 -2.26634C371.319 7.24036 369.14 15.9548 364.783 23.8771C360.425 31.6013 353.989 37.4439 345.472 41.4051C356.959 44.3759 365.773 50.1195 371.913 58.6359C378.052 66.9543 381.122 77.8474 381.122 91.3152C381.122 103.397 378.845 113.498 374.289 121.618C369.932 129.54 363.792 135.878 355.87 140.631C348.146 145.385 339.134 148.851 328.836 151.029C318.537 153.01 307.544 154 295.859 154H217.726ZM254.862 120.132H299.127C304.673 120.132 310.119 119.736 315.467 118.944C320.814 118.152 325.667 116.765 330.024 114.785C334.381 112.804 337.748 109.932 340.125 106.169C342.699 102.208 343.987 97.1579 343.987 91.0181C343.987 85.4726 342.997 80.9173 341.016 77.3522C339.035 73.7872 336.263 71.0144 332.698 69.0339C329.331 66.8553 325.27 65.3698 320.517 64.5776C315.764 63.5873 310.812 63.0922 305.663 63.0922H254.862V120.132ZM254.862 31.8984H294.077C300.216 31.8984 305.762 31.3042 310.713 30.1158C315.665 28.9275 319.923 27.145 323.488 24.7683C327.053 22.1936 329.826 19.1237 331.806 15.5587C333.787 11.7956 334.777 7.24036 334.777 1.89284C334.777 -5.03914 333.193 -10.1886 330.024 -13.5555C326.855 -17.1206 322.498 -19.3982 316.952 -20.3885C311.605 -21.5768 305.564 -22.171 298.83 -22.171H254.862V31.8984ZM495.186 156.377C473.598 156.377 455.179 151.821 439.929 142.711C424.877 133.6 413.29 120.925 405.17 104.684C397.248 88.4434 393.287 69.9251 393.287 49.1292C393.287 27.9372 397.347 9.31995 405.467 -6.7226C413.587 -22.9632 425.273 -35.6388 440.523 -44.7494C455.773 -54.058 474.193 -58.7124 495.781 -58.7124C517.369 -58.7124 535.689 -54.1571 550.741 -45.0465C565.992 -35.9359 577.677 -23.2603 585.797 -7.0197C593.917 9.02286 597.978 27.5411 597.978 48.5351C597.978 69.331 593.917 87.8492 585.797 104.09C577.875 120.33 566.19 133.105 550.741 142.414C535.491 151.722 516.973 156.377 495.186 156.377ZM495.781 121.915C510.833 121.915 523.112 118.449 532.619 111.517C542.126 104.585 549.058 95.5734 553.415 84.4823C557.97 73.3911 560.248 61.6068 560.248 49.1292C560.248 39.6225 558.961 30.512 556.386 21.7975C554.009 13.083 550.147 5.25979 544.8 -1.67218C539.65 -8.60414 533.015 -14.0507 524.895 -18.0118C516.775 -22.171 507.07 -24.2506 495.781 -24.2506C480.926 -24.2506 468.647 -20.7846 458.942 -13.8526C449.435 -6.92066 442.404 2.09089 437.849 13.182C433.294 24.2732 431.016 36.2556 431.016 49.1292C431.016 61.8048 433.294 73.6882 437.849 84.7794C442.404 95.8705 449.435 104.882 458.942 111.814C468.647 118.548 480.926 121.915 495.781 121.915ZM706.875 156.377C686.872 156.377 670.433 152.515 657.559 144.79C644.686 136.868 635.179 125.777 629.039 111.517C622.899 97.2569 619.83 80.4221 619.83 61.0126V-56.0386H656.965V61.9039C656.965 72.5989 658.451 82.6007 661.421 91.9094C664.59 101.02 669.839 108.348 677.167 113.894C684.693 119.439 694.794 122.212 707.469 122.212C720.343 122.212 730.246 119.439 737.178 113.894C744.308 108.15 749.259 100.723 752.032 91.6123C755.003 82.5017 756.488 72.5989 756.488 61.9039V-56.0386H793.921V61.0126C793.921 80.2241 790.851 96.9598 784.711 111.22C778.572 125.48 769.164 136.571 756.488 144.493C743.813 152.416 727.275 156.377 706.875 156.377ZM872.76 154V-22.171H807.104V-56.0386H975.254V-22.171H909.598V154H872.76ZM1146.15 156.377C1126.15 156.377 1109.71 152.515 1096.84 144.79C1083.96 136.868 1074.46 125.777 1068.32 111.517C1062.18 97.2569 1059.11 80.4221 1059.11 61.0126V-56.0386H1096.24V61.9039C1096.24 72.5989 1097.73 82.6007 1100.7 91.9094C1103.87 101.02 1109.12 108.348 1116.45 113.894C1123.97 119.439 1134.07 122.212 1146.75 122.212C1159.62 122.212 1169.52 119.439 1176.46 113.894C1183.59 108.15 1188.54 100.723 1191.31 91.6123C1194.28 82.5017 1195.77 72.5989 1195.77 61.9039V-56.0386H1233.2V61.0126C1233.2 80.2241 1230.13 96.9598 1223.99 111.22C1217.85 125.48 1208.44 136.571 1195.77 144.493C1183.09 152.416 1166.55 156.377 1146.15 156.377ZM1345.01 156.377C1330.95 156.377 1317.68 154.297 1305.21 150.138C1292.93 145.781 1282.63 138.948 1274.31 129.639C1265.99 120.132 1260.54 107.754 1257.97 92.5035H1295.7C1298.08 100.228 1301.84 106.268 1306.99 110.626C1312.34 114.983 1318.57 118.053 1325.7 119.835C1332.83 121.42 1340.06 122.212 1347.39 122.212C1353.93 122.212 1360.07 121.42 1365.81 119.835C1371.75 118.053 1376.6 115.181 1380.37 111.22C1384.33 107.259 1386.31 102.01 1386.31 95.4744C1386.31 90.523 1385.22 86.5619 1383.04 83.591C1381.06 80.4221 1378.19 77.8474 1374.43 75.8668C1370.86 73.6882 1366.5 72.0047 1361.35 70.8164C1356.4 69.2319 1351.06 67.8456 1345.31 66.6572C1339.57 65.4689 1333.92 64.1815 1328.38 62.7951C1322.83 61.4087 1317.58 59.6262 1312.63 57.4476C1306.29 55.269 1300.15 52.7933 1294.21 50.0205C1288.47 47.0497 1283.42 43.4846 1279.06 39.3255C1274.9 35.1663 1271.54 30.0168 1268.96 23.8771C1266.39 17.7373 1265.1 10.4093 1265.1 1.89284C1265.1 -7.81192 1266.68 -16.1303 1269.85 -23.0622C1273.22 -30.1923 1277.58 -36.0349 1282.92 -40.5902C1288.47 -45.1455 1294.61 -48.7105 1301.34 -51.2853C1308.28 -53.86 1315.41 -55.7415 1322.73 -56.9299C1330.26 -58.1182 1337.39 -58.7124 1344.12 -58.7124C1357.2 -58.7124 1369.08 -56.5337 1379.77 -52.1765C1390.67 -47.8193 1399.58 -41.0854 1406.51 -31.9748C1413.44 -22.8642 1417.4 -11.1789 1418.39 3.08118H1382.45C1381.66 -3.65274 1379.28 -9.00026 1375.32 -12.9614C1371.36 -17.1206 1366.4 -20.0914 1360.46 -21.8739C1354.52 -23.8545 1348.08 -24.8448 1341.15 -24.8448C1336.4 -24.8448 1331.65 -24.4486 1326.89 -23.6564C1322.34 -22.8642 1318.18 -21.4778 1314.42 -19.4972C1310.85 -17.5167 1307.88 -14.8429 1305.5 -11.476C1303.32 -8.30706 1302.23 -4.2469 1302.23 0.704497C1302.23 5.06174 1303.32 8.92383 1305.5 12.2908C1307.68 15.4597 1310.65 18.1334 1314.42 20.3121C1318.38 22.4907 1323.03 24.4712 1328.38 26.2538C1335.31 29.0265 1342.84 31.1061 1350.96 32.4925C1359.27 33.8789 1367.1 35.7604 1374.43 38.1371C1381.56 40.1177 1388.09 42.5934 1394.03 45.5642C1400.17 48.337 1405.42 51.803 1409.78 55.9622C1414.14 59.9233 1417.5 64.8747 1419.88 70.8164C1422.45 76.56 1423.74 83.492 1423.74 91.6123C1423.74 103.496 1421.56 113.597 1417.21 121.915C1413.05 130.035 1407.2 136.67 1399.68 141.82C1392.35 146.969 1383.93 150.732 1374.43 153.109C1365.12 155.287 1355.31 156.377 1345.01 156.377Z" fill="#11131E"/>
</svg>
