<svg width="1382" height="213" viewBox="0 0 1382 213" fill="none" xmlns="http://www.w3.org/2000/svg">
<path opacity="0.03" d="M0.320592 325V4.85053H131.641C146.433 4.85053 160.018 6.20901 172.395 8.92598C185.074 11.3411 195.942 15.7184 204.999 22.058C214.357 28.3976 221.603 36.8504 226.735 47.4164C231.867 57.9824 234.433 71.1144 234.433 86.8124C234.433 101.303 231.112 114.586 224.471 126.661C217.829 138.435 208.018 147.34 195.037 153.378C212.546 157.906 225.98 166.661 235.338 179.642C244.697 192.321 249.376 208.925 249.376 229.453C249.376 247.868 245.904 263.264 238.961 275.642C232.32 287.717 222.961 297.377 210.886 304.623C199.112 311.868 185.376 317.151 169.678 320.472C153.98 323.491 137.226 325 119.414 325H0.320592ZM56.9241 273.378H124.396C132.848 273.378 141.15 272.774 149.301 271.566C157.452 270.359 164.848 268.246 171.49 265.227C178.131 262.208 183.263 257.83 186.886 252.095C190.81 246.057 192.773 238.359 192.773 229C192.773 220.548 191.263 213.604 188.244 208.17C185.225 202.736 180.999 198.51 175.565 195.491C170.433 192.17 164.244 189.906 156.999 188.699C149.754 187.189 142.207 186.435 134.358 186.435H56.9241V273.378ZM56.9241 138.888H116.697C126.056 138.888 134.509 137.982 142.056 136.171C149.603 134.359 156.093 131.642 161.527 128.02C166.961 124.095 171.188 119.416 174.207 113.982C177.225 108.246 178.735 101.303 178.735 93.152C178.735 82.586 176.32 74.737 171.49 69.6049C166.659 64.171 160.018 60.6993 151.565 59.1899C143.414 57.3786 134.207 56.4729 123.943 56.4729H56.9241V138.888ZM285.578 325V4.85053H342.181V273.378H508.822V325H285.578ZM670.895 328.623C637.99 328.623 609.914 321.679 586.669 307.793C563.726 293.906 546.066 274.585 533.688 249.831C521.613 225.076 515.575 196.85 515.575 165.152C515.575 132.85 521.764 104.473 534.141 80.02C546.519 55.2654 564.33 35.9447 587.575 22.058C610.82 7.86938 638.895 0.775075 671.801 0.775075C704.706 0.775075 732.631 7.71844 755.574 21.6052C778.819 35.4919 796.631 54.8126 809.008 79.5671C821.385 104.02 827.574 132.246 827.574 164.246C827.574 195.944 821.385 224.17 809.008 248.925C796.932 273.679 779.121 293.151 755.574 307.34C732.329 321.528 704.103 328.623 670.895 328.623ZM671.801 276.095C694.744 276.095 713.461 270.812 727.952 260.246C742.442 249.68 753.008 235.944 759.65 219.038C766.593 202.133 770.065 184.17 770.065 165.152C770.065 150.661 768.102 136.774 764.178 123.491C760.555 110.209 754.669 98.2841 746.518 87.7181C738.669 77.1521 728.555 68.8502 716.178 62.8125C703.801 56.4729 689.008 53.3031 671.801 53.3031C649.16 53.3031 630.443 58.5861 615.65 69.1521C601.16 79.7181 590.443 93.4539 583.5 110.359C576.556 127.265 573.084 145.529 573.084 165.152C573.084 184.472 576.556 202.585 583.5 219.491C590.443 236.397 601.16 250.132 615.65 260.698C630.443 270.963 649.16 276.095 671.801 276.095ZM863.146 325V4.85053H919.749V142.51H965.485L1056.05 4.85053H1120.35L1013.48 161.529L1120.35 325H1054.69L968.202 194.133H919.749V325H863.146ZM1261.74 328.623C1240.3 328.623 1220.08 325.453 1201.06 319.113C1182.34 312.472 1166.64 302.057 1153.96 287.868C1141.28 273.378 1132.98 254.51 1129.06 231.265H1186.57C1190.19 243.038 1195.93 252.246 1203.77 258.887C1211.93 265.529 1221.44 270.208 1232.3 272.925C1243.17 275.34 1254.19 276.547 1265.36 276.547C1275.32 276.547 1284.68 275.34 1293.43 272.925C1302.49 270.208 1309.89 265.83 1315.62 259.793C1321.66 253.755 1324.68 245.755 1324.68 235.793C1324.68 228.246 1323.02 222.208 1319.7 217.68C1316.68 212.85 1312.3 208.925 1306.57 205.906C1301.13 202.585 1294.49 200.019 1286.64 198.208C1279.1 195.793 1270.94 193.68 1262.19 191.869C1253.44 190.057 1244.83 188.095 1236.38 185.982C1227.93 183.869 1219.93 181.152 1212.38 177.831C1202.72 174.51 1193.36 170.737 1184.3 166.51C1175.55 161.982 1167.85 156.548 1161.21 150.208C1154.87 143.869 1149.74 136.02 1145.81 126.661C1141.89 117.303 1139.93 106.133 1139.93 93.152C1139.93 78.3596 1142.34 65.6804 1147.17 55.1144C1152.3 44.2466 1158.94 35.3409 1167.1 28.3976C1175.55 21.4542 1184.91 16.0203 1195.17 12.0958C1205.74 8.17125 1216.61 5.30334 1227.77 3.49204C1239.25 1.68073 1250.11 0.775075 1260.38 0.775075C1280.3 0.775075 1298.42 4.09582 1314.72 10.7373C1331.32 17.3788 1344.91 27.6429 1355.47 41.5296C1366.04 55.4163 1372.08 73.2276 1373.59 94.9633H1318.79C1317.59 84.6992 1313.96 76.5483 1307.93 70.5106C1301.89 64.171 1294.34 59.6427 1285.28 56.9258C1276.23 53.9069 1266.42 52.3975 1255.85 52.3975C1248.6 52.3975 1241.36 53.0012 1234.11 54.2088C1227.17 55.4163 1220.83 57.5295 1215.1 60.5484C1209.66 63.5672 1205.13 67.6427 1201.51 72.7747C1198.19 77.6049 1196.53 83.7936 1196.53 91.3407C1196.53 97.9822 1198.19 103.869 1201.51 109.001C1204.83 113.831 1209.36 117.907 1215.1 121.227C1221.13 124.548 1228.23 127.567 1236.38 130.284C1246.94 134.51 1258.42 137.68 1270.79 139.793C1283.47 141.907 1295.4 144.774 1306.57 148.397C1317.43 151.416 1327.4 155.189 1336.45 159.718C1345.81 163.944 1353.81 169.227 1360.45 175.567C1367.09 181.604 1372.23 189.152 1375.85 198.208C1379.77 206.963 1381.74 217.529 1381.74 229.906C1381.74 248.019 1378.42 263.415 1371.77 276.095C1365.43 288.472 1356.53 298.585 1345.06 306.434C1333.89 314.283 1321.06 320.019 1306.57 323.642C1292.38 326.962 1277.44 328.623 1261.74 328.623Z" fill="#11131E"/>
</svg>
