<svg width="139" height="44" viewBox="0 0 139 44" fill="none" xmlns="http://www.w3.org/2000/svg">
<g clip-path="url(#clip0_0_818)">
<path d="M40.388 12.9562C41.2376 11.5129 41.6624 10.7912 42.3544 10.3956C43.0463 10 43.8838 10 45.5586 10H47.9927C52.6512 10 54.9805 10 55.8443 11.511C56.7082 13.022 55.5266 15.0293 53.1633 19.0438L46.0992 31.0438C45.2496 32.4871 44.8247 33.2088 44.1328 33.6044C43.4408 34 42.6034 34 40.9286 34H38.4945C33.836 34 31.5067 34 30.6428 32.489C29.779 30.978 30.9606 28.9707 33.3239 24.9562L40.388 12.9562Z" fill="#5166F1"/>
<path d="M24.9106 12.5258C25.5106 11.5064 25.8107 10.9968 26.2482 10.6497C26.4857 10.4613 26.7502 10.3101 27.033 10.201C27.5541 10 28.1455 10 29.3284 10C32.5896 10 34.2203 10 35.0821 10.7953C35.5357 11.2138 35.8491 11.762 35.9797 12.3652C36.2278 13.5113 35.4006 14.9166 33.7461 17.7271L25.6535 31.4742C25.0535 32.4936 24.7534 33.0032 24.3159 33.3503C24.0784 33.5387 23.8139 33.6899 23.5311 33.799C23.01 34 22.4186 34 21.2357 34C17.9744 34 16.3438 34 15.482 33.2047C15.0284 32.7862 14.715 32.238 14.5844 31.6348C14.3363 30.4887 15.1635 29.0834 16.818 26.2729L24.9106 12.5258Z" fill="#5166F1"/>
<path d="M13.3848 11.8943C13.6225 11.4906 13.7413 11.2887 13.8793 11.1176C14.353 10.5297 15.031 10.1421 15.7779 10.032C15.9954 10 16.2296 10 16.6982 10C17.9815 10 18.6232 10 19.0511 10.1305C20.5689 10.5936 21.4637 12.1585 21.0927 13.7013C20.9881 14.1363 20.6626 14.6893 20.0115 15.7953L10.41 32.1057C10.1723 32.5094 10.0535 32.7113 9.91556 32.8824C9.44181 33.4703 8.76381 33.8579 8.01686 33.968C7.79943 34 7.56517 34 7.09665 34C5.81328 34 5.1716 34 4.74367 33.8695C3.22587 33.4065 2.33116 31.8415 2.70214 30.2987C2.80673 29.8637 3.13226 29.3107 3.78331 28.2047L13.3848 11.8943Z" fill="#5166F1"/>
</g>
<path d="M63.872 30.5V13.532H70.832C71.616 13.532 72.336 13.604 72.992 13.748C73.664 13.876 74.24 14.108 74.72 14.444C75.216 14.78 75.6 15.228 75.872 15.788C76.144 16.348 76.28 17.044 76.28 17.876C76.28 18.644 76.104 19.348 75.752 19.988C75.4 20.612 74.88 21.084 74.192 21.404C75.12 21.644 75.832 22.108 76.328 22.796C76.824 23.468 77.072 24.348 77.072 25.436C77.072 26.412 76.888 27.228 76.52 27.884C76.168 28.524 75.672 29.036 75.032 29.42C74.408 29.804 73.68 30.084 72.848 30.26C72.016 30.42 71.128 30.5 70.184 30.5H63.872ZM66.872 27.764H70.448C70.896 27.764 71.336 27.732 71.768 27.668C72.2 27.604 72.592 27.492 72.944 27.332C73.296 27.172 73.568 26.94 73.76 26.636C73.968 26.316 74.072 25.908 74.072 25.412C74.072 24.964 73.992 24.596 73.832 24.308C73.672 24.02 73.448 23.796 73.16 23.636C72.888 23.46 72.56 23.34 72.176 23.276C71.792 23.196 71.392 23.156 70.976 23.156H66.872V27.764ZM66.872 20.636H70.04C70.536 20.636 70.984 20.588 71.384 20.492C71.784 20.396 72.128 20.252 72.416 20.06C72.704 19.852 72.928 19.604 73.088 19.316C73.248 19.012 73.328 18.644 73.328 18.212C73.328 17.652 73.2 17.236 72.944 16.964C72.688 16.676 72.336 16.492 71.888 16.412C71.456 16.316 70.968 16.268 70.424 16.268H66.872V20.636ZM78.9907 30.5V13.532H81.9907V27.764H90.8227V30.5H78.9907ZM99.4126 30.692C97.6686 30.692 96.1806 30.324 94.9486 29.588C93.7326 28.852 92.7966 27.828 92.1406 26.516C91.5006 25.204 91.1806 23.708 91.1806 22.028C91.1806 20.316 91.5086 18.812 92.1646 17.516C92.8206 16.204 93.7646 15.18 94.9966 14.444C96.2286 13.692 97.7166 13.316 99.4606 13.316C101.205 13.316 102.685 13.684 103.901 14.42C105.133 15.156 106.077 16.18 106.733 17.492C107.389 18.788 107.717 20.284 107.717 21.98C107.717 23.66 107.389 25.156 106.733 26.468C106.093 27.78 105.149 28.812 103.901 29.564C102.669 30.316 101.173 30.692 99.4126 30.692ZM99.4606 27.908C100.677 27.908 101.669 27.628 102.437 27.068C103.205 26.508 103.765 25.78 104.117 24.884C104.485 23.988 104.669 23.036 104.669 22.028C104.669 21.26 104.565 20.524 104.357 19.82C104.165 19.116 103.853 18.484 103.421 17.924C103.005 17.364 102.469 16.924 101.813 16.604C101.157 16.268 100.373 16.1 99.4606 16.1C98.2606 16.1 97.2686 16.38 96.4846 16.94C95.7166 17.5 95.1486 18.228 94.7806 19.124C94.4126 20.02 94.2286 20.988 94.2286 22.028C94.2286 23.052 94.4126 24.012 94.7806 24.908C95.1486 25.804 95.7166 26.532 96.4846 27.092C97.2686 27.636 98.2606 27.908 99.4606 27.908ZM109.602 30.5V13.532H112.602V20.828H115.026L119.826 13.532H123.234L117.57 21.836L123.234 30.5H119.754L115.17 23.564H112.602V30.5H109.602ZM130.727 30.692C129.591 30.692 128.519 30.524 127.511 30.188C126.519 29.836 125.687 29.284 125.015 28.532C124.343 27.764 123.903 26.764 123.695 25.532H126.743C126.935 26.156 127.239 26.644 127.655 26.996C128.087 27.348 128.591 27.596 129.167 27.74C129.743 27.868 130.327 27.932 130.919 27.932C131.447 27.932 131.943 27.868 132.407 27.74C132.887 27.596 133.279 27.364 133.583 27.044C133.903 26.724 134.063 26.3 134.063 25.772C134.063 25.372 133.975 25.052 133.799 24.812C133.639 24.556 133.407 24.348 133.103 24.188C132.815 24.012 132.463 23.876 132.047 23.78C131.647 23.652 131.215 23.54 130.751 23.444C130.287 23.348 129.831 23.244 129.383 23.132C128.935 23.02 128.511 22.876 128.111 22.7C127.599 22.524 127.103 22.324 126.623 22.1C126.159 21.86 125.751 21.572 125.399 21.236C125.063 20.9 124.791 20.484 124.583 19.988C124.375 19.492 124.271 18.9 124.271 18.212C124.271 17.428 124.399 16.756 124.655 16.196C124.927 15.62 125.279 15.148 125.711 14.78C126.159 14.412 126.655 14.124 127.199 13.916C127.759 13.708 128.335 13.556 128.927 13.46C129.535 13.364 130.111 13.316 130.655 13.316C131.711 13.316 132.671 13.492 133.535 13.844C134.415 14.196 135.135 14.74 135.695 15.476C136.255 16.212 136.575 17.156 136.655 18.308H133.751C133.687 17.764 133.495 17.332 133.175 17.012C132.855 16.676 132.455 16.436 131.975 16.292C131.495 16.132 130.975 16.052 130.415 16.052C130.031 16.052 129.647 16.084 129.263 16.148C128.895 16.212 128.559 16.324 128.255 16.484C127.967 16.644 127.727 16.86 127.535 17.132C127.359 17.388 127.271 17.716 127.271 18.116C127.271 18.468 127.359 18.78 127.535 19.052C127.711 19.308 127.951 19.524 128.255 19.7C128.575 19.876 128.951 20.036 129.383 20.18C129.943 20.404 130.551 20.572 131.207 20.684C131.879 20.796 132.511 20.948 133.103 21.14C133.679 21.3 134.207 21.5 134.687 21.74C135.183 21.964 135.607 22.244 135.959 22.58C136.311 22.9 136.583 23.3 136.775 23.78C136.983 24.244 137.087 24.804 137.087 25.46C137.087 26.42 136.911 27.236 136.559 27.908C136.223 28.564 135.751 29.1 135.143 29.516C134.551 29.932 133.871 30.236 133.103 30.428C132.351 30.604 131.559 30.692 130.727 30.692Z" fill="white"/>
<defs>
<clipPath id="clip0_0_818">
<rect width="58" height="24" fill="white" transform="translate(0 10)"/>
</clipPath>
</defs>
</svg>
