<svg width="1397" height="271" viewBox="0 0 1397 271" fill="none" xmlns="http://www.w3.org/2000/svg">
<path opacity="0.03" d="M0.562757 268V3.43204H100.103C120.061 3.43204 137.275 6.55047 151.744 12.7873C166.463 18.7747 177.815 28.3795 185.798 41.6017C194.03 54.8238 198.147 72.1623 198.147 93.6172C198.147 114.074 193.656 131.163 184.675 144.884C175.694 158.605 163.47 168.959 148.002 175.944C132.535 182.68 114.822 186.048 94.8642 186.048H47.3393V268H0.562757ZM47.3393 144.136H94.1158C111.33 144.136 125.175 140.019 135.653 131.787C146.131 123.554 151.37 110.581 151.37 92.8687C151.37 77.4013 147.004 65.8007 138.273 58.067C129.541 50.0838 116.07 46.0922 97.8579 46.0922H47.3393V144.136ZM227.517 268V3.43204H331.922C345.393 3.43204 358.117 4.80415 370.091 7.54837C382.066 10.0431 392.669 14.5337 401.899 21.02C411.13 27.2569 418.365 35.8637 423.604 46.8406C428.843 57.8175 431.462 71.4139 431.462 87.6298C431.462 101.101 429.092 112.951 424.352 123.18C419.612 133.408 413.001 142.015 404.519 149.001C396.286 155.986 386.432 161.35 374.956 165.092L432.959 268H380.569L328.554 172.576H274.293V268H227.517ZM274.293 131.038H325.56C334.042 131.038 341.776 130.415 348.761 129.167C355.996 127.67 362.233 125.3 367.472 122.057C372.96 118.814 377.077 114.448 379.821 108.96C382.815 103.222 384.436 95.9872 384.686 87.2556C384.686 76.7776 382.44 68.5449 377.95 62.5575C373.709 56.5702 367.472 52.3291 359.239 49.8343C351.256 47.3396 341.651 46.0922 330.425 46.0922H274.293V131.038ZM466.53 268V3.43204H513.306V268H466.53ZM668.68 270.994C641.238 270.994 618.162 265.381 599.451 254.154C580.741 242.678 566.645 226.837 557.165 206.629C547.685 186.422 542.945 162.971 542.945 136.277C542.945 109.584 547.81 86.0082 557.539 65.5513C567.269 45.0943 581.489 29.1279 600.2 17.6521C618.91 5.92679 641.737 0.0641308 668.68 0.0641308C688.638 0.0641308 706.226 3.43204 721.444 10.1679C736.662 16.9037 749.011 26.5084 758.491 38.9822C768.221 51.2064 774.458 66.2997 777.202 84.2619H731.922C728.43 71.5386 721.32 61.5596 710.592 54.3249C699.865 47.0901 685.894 43.4727 668.68 43.4727C649.97 43.4727 634.877 47.8385 623.401 56.5702C611.925 65.3018 603.568 76.5281 598.329 90.2492C593.339 103.97 590.844 118.689 590.844 134.406C590.844 150.622 593.464 165.84 598.703 180.06C604.191 194.28 612.798 205.756 624.523 214.488C636.249 223.219 651.342 227.585 669.803 227.585C681.279 227.585 691.258 225.964 699.74 222.72C708.472 219.477 715.706 214.862 721.444 208.874C727.432 202.638 731.548 195.403 733.793 187.17H781.318C778.325 204.883 771.589 219.976 761.111 232.45C750.882 244.924 737.785 254.528 721.819 261.264C706.102 267.751 688.389 270.994 668.68 270.994ZM808.612 268V3.43204H855.389V268H808.612ZM899.622 268V3.43204H949.766L1077.37 196.151V3.43204H1124.15V268H1075.13L946.398 76.4034V268H899.622ZM1279 270.994C1252.06 270.994 1229.23 265.381 1210.52 254.154C1191.81 242.678 1177.59 226.837 1167.86 206.629C1158.38 186.172 1153.64 162.597 1153.64 135.903C1153.64 115.696 1156.26 97.3593 1161.5 80.894C1166.99 64.4286 1174.97 50.2085 1185.45 38.2338C1196.18 26.0095 1209.27 16.6542 1224.74 10.1679C1240.21 3.43204 1258.05 0.0641308 1278.25 0.0641308C1297.96 0.0641308 1315.55 3.3073 1331.02 9.79363C1346.74 16.0305 1359.58 25.2611 1369.56 37.4853C1379.79 49.7096 1386.65 64.6781 1390.14 82.3908H1341.87C1339.87 73.9086 1336.01 66.7986 1330.27 61.0607C1324.78 55.3228 1317.8 50.957 1309.31 47.9633C1300.83 44.9696 1291.1 43.4727 1280.13 43.4727C1265.91 43.4727 1253.81 45.9675 1243.83 50.957C1233.85 55.9465 1225.74 62.807 1219.5 71.5386C1213.27 80.0208 1208.65 89.875 1205.66 101.101C1202.91 112.078 1201.54 123.804 1201.54 136.277C1201.54 152.493 1204.16 167.586 1209.4 181.557C1214.89 195.528 1223.37 206.754 1234.85 215.236C1246.57 223.469 1261.79 227.585 1280.5 227.585C1293.72 227.585 1305.32 225.34 1315.3 220.849C1325.53 216.359 1333.51 209.872 1339.25 201.39C1345.24 192.659 1348.48 181.931 1348.98 169.208H1271.89V128.793H1396.13V146.007C1396.13 171.703 1391.64 193.906 1382.66 212.617C1373.68 231.327 1360.46 245.797 1342.99 256.025C1325.78 266.004 1304.45 270.994 1279 270.994Z" fill="#11131E"/>
</svg>
